<?xml version="1.0" standalone="no"?><!DOCTYPE svg PUBLIC "-//W3C//DTD SVG 1.1//EN" "http://www.w3.org/Graphics/SVG/1.1/DTD/svg11.dtd"><svg class="icon" height="512" viewBox="0 0 1024 1024" version="1.1" xmlns="http://www.w3.org/2000/svg"><path d="M513.447724 974.918621c-68.360828 0-136.403862-15.36-197.773241-44.702897-8.792276-4.201931-12.499862-14.759724-8.297931-23.552s14.689103-12.499862 23.552-8.297931c61.051586 29.201655 129.341793 43.467034 197.278897 40.96 113.134345-3.919448 217.900138-51.694345 295.123862-134.497103 77.188414-82.767448 117.512828-190.640552 113.558069-303.739586-3.354483-96.150069-37.888-185.661793-99.928276-258.860138-6.285241-7.450483-5.367172-18.573241 2.08331-24.893793 7.415172-6.249931 18.537931-5.367172 24.893793 2.048 67.195586 79.342345 104.659862 176.304552 108.261517 280.434759 4.272552 122.526897-39.406345 239.404138-123.021241 329.092414-83.650207 89.688276-197.172966 141.417931-319.699862 145.690483C524.111448 974.81269 518.779586 974.918621 513.447724 974.918621zM185.485241 828.980966c-4.802207 0-9.604414-1.977379-13.100138-5.826207-72.139034-79.977931-113.946483-183.366621-117.689379-291.204414C45.868138 278.951724 244.453517 65.995034 497.416828 57.167448c85.062621-2.895448 168.712828 17.513931 242.299586 59.286069 8.474483 4.837517 11.440552 15.607172 6.638345 24.081655s-15.642483 11.369931-24.081655 6.638345c-67.901793-38.558897-145.584552-57.485241-223.620414-54.731034-113.134345 3.954759-217.900138 51.694345-295.088552 134.497103s-117.548138 190.675862-113.593379 303.774897c3.495724 99.539862 42.054621 194.983724 108.614621 268.782345 6.532414 7.238621 5.967448 18.39669-1.271172 24.929103C193.924414 827.462621 189.722483 828.980966 185.485241 828.980966zM600.275862 829.793103l-102.929655 0c-9.745655 0-17.655172-7.909517-17.655172-17.655172s7.909517-17.655172 17.655172-17.655172L582.62069 794.482759l0-74.151724c0-6.638345 3.707586-12.676414 9.604414-15.713103 59.42731-30.331586 96.326621-90.606345 96.326621-157.307586 0-97.350621-79.201103-176.551724-176.551724-176.551724s-176.551724 79.201103-176.551724 176.551724c0 66.665931 36.89931 126.976 96.326621 157.307586 5.896828 3.03669 9.604414 9.110069 9.604414 15.713103L441.37931 812.137931c0 9.745655-7.909517 17.655172-17.655172 17.655172s-17.655172-7.909517-17.655172-17.655172l0-81.319724c-65.606621-37.817379-105.931034-107.166897-105.931034-183.507862 0-116.841931 95.020138-211.862069 211.862069-211.862069s211.862069 95.020138 211.862069 211.862069c0 76.340966-40.324414 145.690483-105.931034 183.507862L617.931034 812.137931C617.931034 821.883586 610.021517 829.793103 600.275862 829.793103zM688.551724 353.103448c-4.519724 0-9.039448-1.730207-12.499862-5.15531-6.885517-6.885517-6.885517-18.078897 0-24.964414l35.310345-35.310345c6.885517-6.885517 18.078897-6.885517 24.964414 0s6.885517 18.078897 0 24.964414l-35.310345 35.310345C697.591172 351.373241 693.071448 353.103448 688.551724 353.103448zM512 282.482759C502.254345 282.482759 494.344828 274.573241 494.344828 264.827586l0-70.62069C494.344828 184.461241 502.254345 176.551724 512 176.551724S529.655172 184.461241 529.655172 194.206897l0 70.62069C529.655172 274.573241 521.745655 282.482759 512 282.482759zM335.448276 353.103448c-4.519724 0-9.039448-1.730207-12.499862-5.15531l-35.310345-35.310345c-6.885517-6.885517-6.885517-18.078897 0-24.964414s18.078897-6.885517 24.964414 0l35.310345 35.310345c6.885517 6.885517 6.885517 18.078897 0 24.964414C344.487724 351.373241 339.968 353.103448 335.448276 353.103448z" /></svg>